<svg width="93" height="23" viewBox="0 0 93 23" fill="none" xmlns="http://www.w3.org/2000/svg">
<path d="M5.84 15.43C5.84 15.0567 5.63333 14.7167 5.22 14.41C4.80667 14.09 4.17333 13.71 3.32 13.27C2.62667 12.91 2.06667 12.5967 1.64 12.33C1.21333 12.0633 0.846667 11.7567 0.54 11.41C0.246667 11.05 0.1 10.6633 0.1 10.25C0.1 9.77 0.3 9.25667 0.7 8.71C1.1 8.16334 1.59333 7.70334 2.18 7.33001C2.76667 6.95667 3.31333 6.77001 3.82 6.77001C4.43333 6.77001 5.14 6.85001 5.94 7.01C6.75333 7.15667 7.34 7.32334 7.7 7.51V10.59H6.94C6.51333 9.76334 6.02 9.12334 5.46 8.67C4.9 8.20334 4.32667 7.97 3.74 7.97C3.32667 7.97 2.99333 8.08334 2.74 8.31001C2.48667 8.52334 2.36 8.79667 2.36 9.13C2.36 9.54334 2.57333 9.91667 3 10.25C3.44 10.57 4.1 10.95 4.98 11.39C5.66 11.7367 6.20667 12.0367 6.62 12.29C7.03333 12.5433 7.38 12.8433 7.66 13.19C7.95333 13.5233 8.1 13.8967 8.1 14.31C8.1 14.8033 7.88667 15.3233 7.46 15.87C7.04667 16.4033 6.53333 16.8567 5.92 17.23C5.32 17.6033 4.76667 17.79 4.26 17.79C3.60667 17.79 2.82667 17.7167 1.92 17.57C1.02667 17.41 0.386667 17.2367 0 17.05V13.97H0.76C1.22667 14.7967 1.78 15.4433 2.42 15.91C3.06 16.3633 3.70667 16.59 4.36 16.59C4.8 16.59 5.15333 16.4767 5.42 16.25C5.7 16.0233 5.84 15.75 5.84 15.43Z" fill="#EDEDED"/>
<path d="M22.5519 17.59H18.7519V10.85C18.7519 10.1167 18.6385 9.60334 18.4119 9.31001C18.1852 9.01667 17.7785 8.87 17.1919 8.87C16.7519 8.87 16.3119 8.95 15.8719 9.11C15.4452 9.27 14.9385 9.57667 14.3519 10.03V16.09L16.1519 16.79L15.7519 17.59H10.1719V16.97L11.9519 15.57V3.27L10.1719 2.03V1.41001L13.5919 0.130005H14.3519V9.09L17.0919 6.93C17.3719 6.82334 17.7385 6.77001 18.1919 6.77001C19.0985 6.77001 19.8185 7.05001 20.3519 7.61001C20.8852 8.15667 21.1519 8.90334 21.1519 9.85001V16.09L22.9519 16.79L22.5519 17.59Z" fill="#EDEDED"/>
<path d="M43.3563 17.59H39.5563V10.85C39.5563 10.1167 39.4429 9.60334 39.2163 9.31001C38.9896 9.01667 38.5829 8.87 37.9963 8.87C37.5829 8.87 37.1763 8.95 36.7762 9.11C36.3763 9.25667 35.9029 9.55667 35.3563 10.01V16.09L37.1562 16.79L36.7563 17.59H32.9562V10.85C32.9562 10.1167 32.8429 9.60334 32.6162 9.31001C32.3896 9.01667 31.9829 8.87 31.3962 8.87C30.9829 8.87 30.5763 8.95 30.1763 9.11C29.7763 9.25667 29.3029 9.55667 28.7563 10.01V16.09L30.5562 16.79L30.1562 17.59H24.5763V16.97L26.3563 15.57V9.91001L24.5763 8.87V8.25001L27.9963 6.57001L28.6362 9.13L31.2963 6.91C31.5763 6.80334 31.9429 6.75 32.3963 6.75C33.1696 6.75 33.8096 6.96334 34.3162 7.39C34.8229 7.80334 35.1429 8.37667 35.2762 9.11L37.8763 6.93C38.1562 6.82334 38.5229 6.77001 38.9762 6.77001C39.8829 6.77001 40.6029 7.05001 41.1362 7.61001C41.6696 8.15667 41.9362 8.90334 41.9362 9.85001V16.09L43.7563 16.79L43.3563 17.59Z" fill="#EDEDED"/>
<path d="M55.8975 7.59001L50.8375 17.59L46.6775 22.87L45.9175 22.27C46.6775 21.4567 47.2508 20.7433 47.6375 20.13C48.0375 19.5167 48.3175 18.8967 48.4775 18.27C48.6375 17.6567 48.7175 16.9233 48.7175 16.07L46.1975 9.97001L44.3375 8.89001V8.27001L47.7575 6.59L48.5175 9.61001L50.9575 15.57L53.7775 9.71L51.1175 7.77L51.5175 6.97001H55.8975V7.59001Z" fill="#EDEDED"/>
<path d="M67.7692 17.59H63.9692V15.85L61.7092 17.63C61.4426 17.7367 61.1092 17.79 60.7092 17.79C59.5625 17.79 58.7292 17.5033 58.2092 16.93C57.7025 16.3567 57.4492 15.67 57.4492 14.87C57.4492 14.39 57.6226 13.9167 57.9692 13.45C58.3159 12.9833 58.8092 12.5433 59.4492 12.13H63.9692V10.85C63.9692 9.98334 63.7359 9.37 63.2692 9.01C62.8159 8.65001 62.1892 8.47001 61.3892 8.47001C60.5625 8.47001 59.5492 8.97001 58.3492 9.97001L57.7492 9.21L60.6292 6.93C61.1626 6.82334 61.8026 6.77001 62.5492 6.77001C63.7626 6.77001 64.7026 7.07 65.3692 7.67C66.0359 8.25667 66.3692 9.11667 66.3692 10.25V16.09L68.1692 16.79L67.7692 17.59ZM61.3492 16.09C62.1626 16.09 63.0359 15.7167 63.9692 14.97V12.95H60.4292C60.2559 13.1633 60.1292 13.3767 60.0492 13.59C59.9826 13.8033 59.9492 14.0367 59.9492 14.29C59.9492 14.7833 60.0759 15.21 60.3292 15.57C60.5826 15.9167 60.9226 16.09 61.3492 16.09Z" fill="#EDEDED"/>
<path d="M75.3511 16.79L74.9511 17.59H69.3711V16.97L71.1511 15.57V3.27L69.3711 2.03V1.41001L72.7911 0.130005H73.5511V16.09L75.3511 16.79ZM81.7511 17.59H78.3711L74.6111 12.31L78.3511 9.17L76.4311 7.77L76.8311 6.97001H81.6111V7.59001L76.9711 11.49L80.3511 16.09L82.1511 16.79L81.7511 17.59Z" fill="#EDEDED"/>
<path d="M90.0002 15.43C90.0002 15.0567 89.7935 14.7167 89.3802 14.41C88.9668 14.09 88.3335 13.71 87.4802 13.27C86.7868 12.91 86.2268 12.5967 85.8002 12.33C85.3735 12.0633 85.0068 11.7567 84.7002 11.41C84.4068 11.05 84.2602 10.6633 84.2602 10.25C84.2602 9.77 84.4602 9.25667 84.8602 8.71C85.2602 8.16334 85.7535 7.70334 86.3402 7.33001C86.9268 6.95667 87.4735 6.77001 87.9802 6.77001C88.5935 6.77001 89.3002 6.85001 90.1002 7.01C90.9135 7.15667 91.5002 7.32334 91.8602 7.51V10.59H91.1002C90.6735 9.76334 90.1802 9.12334 89.6202 8.67C89.0602 8.20334 88.4868 7.97 87.9002 7.97C87.4868 7.97 87.1535 8.08334 86.9002 8.31001C86.6468 8.52334 86.5202 8.79667 86.5202 9.13C86.5202 9.54334 86.7335 9.91667 87.1602 10.25C87.6002 10.57 88.2602 10.95 89.1402 11.39C89.8202 11.7367 90.3668 12.0367 90.7802 12.29C91.1935 12.5433 91.5402 12.8433 91.8202 13.19C92.1135 13.5233 92.2602 13.8967 92.2602 14.31C92.2602 14.8033 92.0468 15.3233 91.6202 15.87C91.2068 16.4033 90.6935 16.8567 90.0802 17.23C89.4802 17.6033 88.9268 17.79 88.4202 17.79C87.7668 17.79 86.9868 17.7167 86.0802 17.57C85.1868 17.41 84.5468 17.2367 84.1602 17.05V13.97H84.9202C85.3868 14.7967 85.9402 15.4433 86.5802 15.91C87.2202 16.3633 87.8668 16.59 88.5202 16.59C88.9602 16.59 89.3135 16.4767 89.5802 16.25C89.8602 16.0233 90.0002 15.75 90.0002 15.43Z" fill="#EDEDED"/>
</svg>
